<mxfile host="Electron" modified="2024-03-14T14:01:03.862Z" agent="Mozilla/5.0 (Windows NT 10.0; Win64; x64) AppleWebKit/537.36 (KHTML, like Gecko) draw.io/24.0.4 Chrome/120.0.6099.109 Electron/28.1.0 Safari/537.36" etag="JS3RW7jk-rl51rK-d30f" version="24.0.4" type="device">
  <diagram name="Seite-1" id="Olpp92oRMPmDPg-NubmI">
    <mxGraphModel dx="988" dy="592" grid="1" gridSize="10" guides="1" tooltips="1" connect="1" arrows="1" fold="1" page="1" pageScale="1" pageWidth="827" pageHeight="1169" math="0" shadow="0">
      <root>
        <mxCell id="0" />
        <mxCell id="1" parent="0" />
        <mxCell id="YB7Ko895m8uqNr3nw0pd-6" style="edgeStyle=orthogonalEdgeStyle;rounded=0;orthogonalLoop=1;jettySize=auto;html=1;entryX=0.5;entryY=0;entryDx=0;entryDy=0;" edge="1" parent="1" source="YB7Ko895m8uqNr3nw0pd-1" target="YB7Ko895m8uqNr3nw0pd-3">
          <mxGeometry relative="1" as="geometry" />
        </mxCell>
        <mxCell id="YB7Ko895m8uqNr3nw0pd-8" style="edgeStyle=orthogonalEdgeStyle;rounded=0;orthogonalLoop=1;jettySize=auto;html=1;entryX=0.5;entryY=0;entryDx=0;entryDy=0;" edge="1" parent="1" source="YB7Ko895m8uqNr3nw0pd-1" target="YB7Ko895m8uqNr3nw0pd-2">
          <mxGeometry relative="1" as="geometry" />
        </mxCell>
        <mxCell id="YB7Ko895m8uqNr3nw0pd-1" value="Main.Py" style="rounded=0;whiteSpace=wrap;html=1;" vertex="1" parent="1">
          <mxGeometry x="339" y="290" width="150" height="70" as="geometry" />
        </mxCell>
        <mxCell id="YB7Ko895m8uqNr3nw0pd-2" value="Whatsminer.Py" style="rounded=0;whiteSpace=wrap;html=1;" vertex="1" parent="1">
          <mxGeometry x="517.5" y="390" width="136" height="60" as="geometry" />
        </mxCell>
        <mxCell id="YB7Ko895m8uqNr3nw0pd-11" style="edgeStyle=orthogonalEdgeStyle;rounded=0;orthogonalLoop=1;jettySize=auto;html=1;entryX=0.25;entryY=0;entryDx=0;entryDy=0;exitX=0.25;exitY=1;exitDx=0;exitDy=0;" edge="1" parent="1" source="YB7Ko895m8uqNr3nw0pd-3" target="YB7Ko895m8uqNr3nw0pd-5">
          <mxGeometry relative="1" as="geometry" />
        </mxCell>
        <mxCell id="YB7Ko895m8uqNr3nw0pd-3" value="Antminer.Py" style="rounded=0;whiteSpace=wrap;html=1;" vertex="1" parent="1">
          <mxGeometry x="174.5" y="390" width="133" height="60" as="geometry" />
        </mxCell>
        <mxCell id="YB7Ko895m8uqNr3nw0pd-17" style="edgeStyle=orthogonalEdgeStyle;rounded=0;orthogonalLoop=1;jettySize=auto;html=1;exitX=0.25;exitY=0;exitDx=0;exitDy=0;entryX=0.25;entryY=1;entryDx=0;entryDy=0;" edge="1" parent="1" source="YB7Ko895m8uqNr3nw0pd-4" target="YB7Ko895m8uqNr3nw0pd-2">
          <mxGeometry relative="1" as="geometry" />
        </mxCell>
        <mxCell id="YB7Ko895m8uqNr3nw0pd-4" value="GetStatsWhatsminer.Py" style="rounded=0;whiteSpace=wrap;html=1;" vertex="1" parent="1">
          <mxGeometry x="517.5" y="520" width="136" height="60" as="geometry" />
        </mxCell>
        <mxCell id="YB7Ko895m8uqNr3nw0pd-15" style="edgeStyle=orthogonalEdgeStyle;rounded=0;orthogonalLoop=1;jettySize=auto;html=1;entryX=0.75;entryY=1;entryDx=0;entryDy=0;" edge="1" parent="1" source="YB7Ko895m8uqNr3nw0pd-5" target="YB7Ko895m8uqNr3nw0pd-3">
          <mxGeometry relative="1" as="geometry">
            <Array as="points">
              <mxPoint x="274" y="510" />
              <mxPoint x="274" y="510" />
            </Array>
          </mxGeometry>
        </mxCell>
        <mxCell id="YB7Ko895m8uqNr3nw0pd-5" value="GetStatsAntminer.sh" style="rounded=0;whiteSpace=wrap;html=1;" vertex="1" parent="1">
          <mxGeometry x="174.5" y="520" width="133" height="60" as="geometry" />
        </mxCell>
        <mxCell id="YB7Ko895m8uqNr3nw0pd-9" value="&lt;font style=&quot;font-size: 19px;&quot;&gt;Ruft auf&lt;/font&gt;" style="text;html=1;align=center;verticalAlign=middle;resizable=0;points=[];autosize=1;strokeColor=none;fillColor=none;" vertex="1" parent="1">
          <mxGeometry x="240" y="290" width="90" height="40" as="geometry" />
        </mxCell>
        <mxCell id="YB7Ko895m8uqNr3nw0pd-10" value="&lt;font style=&quot;font-size: 19px;&quot;&gt;Ruft auf&lt;/font&gt;" style="text;html=1;align=center;verticalAlign=middle;resizable=0;points=[];autosize=1;strokeColor=none;fillColor=none;" vertex="1" parent="1">
          <mxGeometry x="489" y="290" width="90" height="40" as="geometry" />
        </mxCell>
        <mxCell id="YB7Ko895m8uqNr3nw0pd-12" style="edgeStyle=orthogonalEdgeStyle;rounded=0;orthogonalLoop=1;jettySize=auto;html=1;entryX=0.75;entryY=0;entryDx=0;entryDy=0;exitX=0.75;exitY=1;exitDx=0;exitDy=0;" edge="1" parent="1" source="YB7Ko895m8uqNr3nw0pd-2" target="YB7Ko895m8uqNr3nw0pd-4">
          <mxGeometry relative="1" as="geometry">
            <mxPoint x="218" y="460" as="sourcePoint" />
            <mxPoint x="218" y="530" as="targetPoint" />
          </mxGeometry>
        </mxCell>
        <mxCell id="YB7Ko895m8uqNr3nw0pd-13" value="&lt;font style=&quot;font-size: 19px;&quot;&gt;Ruft auf&lt;/font&gt;" style="text;html=1;align=center;verticalAlign=middle;resizable=0;points=[];autosize=1;strokeColor=none;fillColor=none;" vertex="1" parent="1">
          <mxGeometry x="110" y="460" width="90" height="40" as="geometry" />
        </mxCell>
        <mxCell id="YB7Ko895m8uqNr3nw0pd-14" value="&lt;font style=&quot;font-size: 19px;&quot;&gt;Ruft auf&lt;/font&gt;" style="text;html=1;align=center;verticalAlign=middle;resizable=0;points=[];autosize=1;strokeColor=none;fillColor=none;" vertex="1" parent="1">
          <mxGeometry x="630" y="460" width="90" height="40" as="geometry" />
        </mxCell>
        <mxCell id="YB7Ko895m8uqNr3nw0pd-18" value="&lt;font style=&quot;font-size: 19px;&quot;&gt;Übergibt&amp;nbsp;&lt;/font&gt;&lt;div&gt;&lt;font style=&quot;font-size: 19px;&quot;&gt;Daten&lt;/font&gt;&lt;/div&gt;" style="text;html=1;align=center;verticalAlign=middle;resizable=0;points=[];autosize=1;strokeColor=none;fillColor=none;" vertex="1" parent="1">
          <mxGeometry x="280" y="460" width="100" height="60" as="geometry" />
        </mxCell>
        <mxCell id="YB7Ko895m8uqNr3nw0pd-19" value="&lt;font style=&quot;font-size: 19px;&quot;&gt;Übergibt&amp;nbsp;&lt;/font&gt;&lt;div&gt;&lt;font style=&quot;font-size: 19px;&quot;&gt;Daten&lt;/font&gt;&lt;/div&gt;" style="text;html=1;align=center;verticalAlign=middle;resizable=0;points=[];autosize=1;strokeColor=none;fillColor=none;" vertex="1" parent="1">
          <mxGeometry x="450" y="460" width="100" height="60" as="geometry" />
        </mxCell>
        <mxCell id="YB7Ko895m8uqNr3nw0pd-20" value="Influx" style="shape=cylinder3;whiteSpace=wrap;html=1;boundedLbl=1;backgroundOutline=1;size=15;" vertex="1" parent="1">
          <mxGeometry x="384" y="380" width="60" height="80" as="geometry" />
        </mxCell>
        <mxCell id="YB7Ko895m8uqNr3nw0pd-21" style="edgeStyle=orthogonalEdgeStyle;rounded=0;orthogonalLoop=1;jettySize=auto;html=1;entryX=0;entryY=0.5;entryDx=0;entryDy=0;entryPerimeter=0;" edge="1" parent="1" source="YB7Ko895m8uqNr3nw0pd-3" target="YB7Ko895m8uqNr3nw0pd-20">
          <mxGeometry relative="1" as="geometry" />
        </mxCell>
        <mxCell id="YB7Ko895m8uqNr3nw0pd-22" style="edgeStyle=orthogonalEdgeStyle;rounded=0;orthogonalLoop=1;jettySize=auto;html=1;entryX=1;entryY=0.5;entryDx=0;entryDy=0;entryPerimeter=0;" edge="1" parent="1" source="YB7Ko895m8uqNr3nw0pd-2" target="YB7Ko895m8uqNr3nw0pd-20">
          <mxGeometry relative="1" as="geometry" />
        </mxCell>
        <mxCell id="YB7Ko895m8uqNr3nw0pd-24" value="&lt;font style=&quot;font-size: 19px;&quot;&gt;Daten&lt;/font&gt;" style="text;html=1;align=center;verticalAlign=middle;resizable=0;points=[];autosize=1;strokeColor=none;fillColor=none;" vertex="1" parent="1">
          <mxGeometry x="447.5" y="380" width="70" height="40" as="geometry" />
        </mxCell>
        <mxCell id="YB7Ko895m8uqNr3nw0pd-25" value="&lt;font style=&quot;font-size: 19px;&quot;&gt;Daten&lt;/font&gt;" style="text;html=1;align=center;verticalAlign=middle;resizable=0;points=[];autosize=1;strokeColor=none;fillColor=none;" vertex="1" parent="1">
          <mxGeometry x="307.5" y="380" width="70" height="40" as="geometry" />
        </mxCell>
      </root>
    </mxGraphModel>
  </diagram>
</mxfile>
